<svg xmlns="http://www.w3.org/2000/svg" viewBox="0 0 520 400" role="img" aria-labelledby="heroTitle">
  <title id="heroTitle">Lab data flowing from LIMS to instruments and billing</title>
  <defs>
    <linearGradient id="bg" x1="0%" y1="0%" x2="100%" y2="100%">
      <stop offset="0%" stop-color="#e8f3f5"/>
      <stop offset="100%" stop-color="#ffffff"/>
    </linearGradient>
    <linearGradient id="pipe" x1="0%" y1="0%" x2="100%" y2="0%">
      <stop offset="0%" stop-color="#0d4f5c"/>
      <stop offset="100%" stop-color="#2a9d8f"/>
    </linearGradient>
    <filter id="shadow" x="-10%" y="-10%" width="120%" height="120%">
      <feDropShadow dx="0" dy="8" stdDeviation="12" flood-color="#0d4f5c" flood-opacity="0.12"/>
    </filter>
  </defs>
  <rect width="520" height="400" rx="16" fill="url(#bg)"/>
  <g filter="url(#shadow)">
    <rect x="36" y="48" width="128" height="88" rx="12" fill="#fff" stroke="#dde4ea" stroke-width="2"/>
    <rect x="196" y="48" width="128" height="88" rx="12" fill="#fff" stroke="#dde4ea" stroke-width="2"/>
    <rect x="356" y="48" width="128" height="88" rx="12" fill="#fff" stroke="#dde4ea" stroke-width="2"/>
    <rect x="116" y="264" width="288" height="88" rx="12" fill="#fff" stroke="#2a9d8f" stroke-width="2"/>
  </g>
  <text x="100" y="82" font-family="Segoe UI, system-ui, sans-serif" font-size="11" font-weight="700" fill="#5c6b7a">LIMS</text>
  <text x="248" y="82" font-family="Segoe UI, system-ui, sans-serif" font-size="11" font-weight="700" fill="#5c6b7a">Instruments</text>
  <text x="388" y="82" font-family="Segoe UI, system-ui, sans-serif" font-size="11" font-weight="700" fill="#5c6b7a">Billing</text>
  <rect x="52" y="98" width="96" height="8" rx="4" fill="#e8f3f5"/>
  <rect x="52" y="114" width="72" height="8" rx="4" fill="#e8f3f5"/>
  <rect x="212" y="98" width="96" height="8" rx="4" fill="#e8f3f5"/>
  <rect x="212" y="114" width="80" height="8" rx="4" fill="#2a9d8f" opacity="0.5"/>
  <rect x="372" y="98" width="96" height="8" rx="4" fill="#e8f3f5"/>
  <rect x="372" y="114" width="64" height="8" rx="4" fill="#e8f3f5"/>
  <circle cx="100" cy="130" r="14" fill="#2a9d8f" opacity="0.2"/>
  <path d="M94 130h12M100 124v12" stroke="#0d4f5c" stroke-width="2" stroke-linecap="round"/>
  <circle cx="260" cy="120" r="10" fill="#15697a"/>
  <rect x="248" y="128" width="24" height="16" rx="3" fill="#0d4f5c" opacity="0.15"/>
  <path d="M400 108h24v28h-24z" fill="none" stroke="#0d4f5c" stroke-width="2"/>
  <path d="M408 116h8v12h-8z" fill="#2a9d8f"/>
  <path d="M164 92h32" stroke="url(#pipe)" stroke-width="3" stroke-linecap="round"/>
  <path d="M324 92h32" stroke="url(#pipe)" stroke-width="3" stroke-linecap="round"/>
  <path d="M260 136v40" stroke="url(#pipe)" stroke-width="3" stroke-linecap="round"/>
  <path d="M200 176h120" stroke="url(#pipe)" stroke-width="3" stroke-linecap="round"/>
  <polygon points="192,92 200,88 200,96" fill="#2a9d8f"/>
  <polygon points="352,92 360,88 360,96" fill="#2a9d8f"/>
  <polygon points="256,172 260,180 252,180" fill="#2a9d8f"/>
  <text x="260" y="302" text-anchor="middle" font-family="Segoe UI, system-ui, sans-serif" font-size="13" font-weight="700" fill="#0d4f5c">Single source of truth</text>
  <rect x="140" y="318" width="240" height="10" rx="5" fill="#e8f3f5"/>
  <rect x="140" y="318" width="180" height="10" rx="5" fill="url(#pipe)"/>
  <g transform="translate(48 168)">
    <rect width="424" height="72" rx="10" fill="#083840" opacity="0.06"/>
    <text x="24" y="28" font-family="Segoe UI, system-ui, sans-serif" font-size="12" font-weight="600" fill="#0d4f5c">Automated handoffs</text>
    <circle cx="80" cy="48" r="6" fill="#2a9d8f"/>
    <circle cx="120" cy="48" r="6" fill="#2a9d8f"/>
    <circle cx="160" cy="48" r="6" fill="#2a9d8f"/>
    <circle cx="200" cy="48" r="6" fill="#15697a"/>
    <circle cx="240" cy="48" r="6" fill="#15697a"/>
    <circle cx="280" cy="48" r="6" fill="#0d4f5c" opacity="0.3"/>
    <path d="M86 48h28M126 48h28M166 48h28M206 48h28" stroke="#2a9d8f" stroke-width="2" opacity="0.6"/>
  </g>
</svg>
