<svg xmlns="http://www.w3.org/2000/svg" viewBox="0 0 640 320" role="img" aria-labelledby="labVisTitle">
  <title id="labVisTitle">Clinical laboratory team and connected systems</title>
  <defs>
    <linearGradient id="g1" x1="0" x2="1"><stop stop-color="#0d4f5c"/><stop offset="1" stop-color="#2a9d8f"/></linearGradient>
  </defs>
  <rect width="640" height="320" rx="16" fill="#fff"/>
  <rect x="0" y="0" width="640" height="120" fill="#e8f3f5"/>
  <rect x="48" y="140" width="160" height="140" rx="12" fill="#f4f7f9" stroke="#dde4ea"/>
  <rect x="240" y="140" width="160" height="140" rx="12" fill="#f4f7f9" stroke="#dde4ea"/>
  <rect x="432" y="140" width="160" height="140" rx="12" fill="#f4f7f9" stroke="#2a9d8f" stroke-width="2"/>
  <rect x="72" y="168" width="112" height="8" rx="4" fill="#dde4ea"/>
  <rect x="72" y="184" width="88" height="8" rx="4" fill="#dde4ea"/>
  <rect x="72" y="200" width="96" height="8" rx="4" fill="#2a9d8f" opacity="0.4"/>
  <rect x="264" y="168" width="112" height="8" rx="4" fill="#dde4ea"/>
  <rect x="264" y="184" width="100" height="8" rx="4" fill="#dde4ea"/>
  <rect x="456" y="168" width="112" height="8" rx="4" fill="#dde4ea"/>
  <rect x="456" y="184" width="80" height="8" rx="4" fill="url(#g1)" opacity="0.5"/>
  <text x="128" y="158" text-anchor="middle" font-family="system-ui,sans-serif" font-size="13" font-weight="700" fill="#0d4f5c">Your lab</text>
  <text x="320" y="158" text-anchor="middle" font-family="system-ui,sans-serif" font-size="13" font-weight="700" fill="#0d4f5c">NexaDataFlow</text>
  <text x="512" y="158" text-anchor="middle" font-family="system-ui,sans-serif" font-size="13" font-weight="700" fill="#0d4f5c">Outcomes</text>
  <circle cx="128" cy="240" r="20" fill="#15697a" opacity="0.2"/>
  <circle cx="108" cy="232" r="8" fill="#0d4f5c"/>
  <circle cx="128" cy="228" r="8" fill="#15697a"/>
  <circle cx="148" cy="232" r="8" fill="#2a9d8f"/>
  <path d="M300 200h40v40h-40z" rx="6" fill="none" stroke="#0d4f5c" stroke-width="2"/>
  <path d="M312 212v16M320 220h-16" stroke="#2a9d8f" stroke-width="2"/>
  <path d="M208 200h64" stroke="#2a9d8f" stroke-width="2" stroke-dasharray="6 4"/>
  <path d="M400 200h32" stroke="#2a9d8f" stroke-width="2"/>
  <polygon points="400,200 408,196 408,204" fill="#2a9d8f"/>
  <path d="M488 220l16 12 24-28" fill="none" stroke="#2a9d8f" stroke-width="3" stroke-linecap="round" stroke-linejoin="round"/>
  <text x="320" y="48" text-anchor="middle" font-family="system-ui,sans-serif" font-size="15" font-weight="600" fill="#083840">Embedded consultants · Unified data · Fewer denials</text>
  <rect x="180" y="64" width="280" height="36" rx="18" fill="url(#g1)" opacity="0.15"/>
</svg>
